<?xml version="1.0" encoding="UTF-8" standalone="no"?>
<svg width="620px" height="855px" viewBox="0 0 620 855" version="1.1" xmlns="http://www.w3.org/2000/svg" xmlns:xlink="http://www.w3.org/1999/xlink" xmlns:sketch="http://www.bohemiancoding.com/sketch/ns">
    <!-- Generator: Sketch 3.4.2 (15855) - http://www.bohemiancoding.com/sketch -->
    <title>particles-full@3x</title>
    <desc>Created with Sketch.</desc>
    <defs></defs>
    <g id="Page-1" stroke="none" stroke-width="1" fill="none" fill-rule="evenodd" sketch:type="MSPage">
        <g id="Desktop-HD" sketch:type="MSArtboardGroup" transform="translate(-275.000000, -82.000000)" stroke="#FFFFFF" fill="#FFFFFF">
            <g id="particles-full" sketch:type="MSLayerGroup" transform="translate(723.500000, 502.500000) rotate(-33.000000) translate(-723.500000, -502.500000) translate(356.000000, 211.000000)">
                <g id="Group" sketch:type="MSShapeGroup">
                    <path d="M74.5,487.3 L130.6,359.9 C130.6,359.8 130.8,359.8 130.9,359.7 C130.9,359.7 131,359.7 131,359.6 L131.2,359.7 L75.1,487.1 C75.1,487.2 74.9,487.2 74.8,487.3 C74.8,487.3 74.7,487.3 74.7,487.4 L74.5,487.3 L74.5,487.3 Z" id="Shape"></path>
                    <path d="M130.7,359.9 C119.3,385.8 107.9,411.6 96.5,437.5 C89.2,454.1 81.9,470.7 74.5,487.3 C74.6,487.2 74.9,487.2 74.9,487.1 C86.3,461.2 97.7,435.4 109.1,409.5 C116.4,392.9 123.7,376.3 131.1,359.6 C131,359.7 130.7,359.8 130.7,359.9 L130.7,359.9 L130.7,359.9 Z" id="Shape"></path>
                    <path d="M465.1,131.3 C465.2,131.3 465.2,131.2 465.3,131.2 C465.4,131.2 465.4,131.1 465.5,131.1 L588.5,72.2 L588.5,72.3 L588.5,72.2 L588.6,72.4 C588.5,72.4 588.5,72.5 588.4,72.5 C588.3,72.5 588.3,72.6 588.2,72.6 L465.2,131.5 L465.1,131.3 L465.1,131.3 Z" id="Shape"></path>
                    <path d="M588.6,72.3 C562.9,84.6 537.3,96.9 511.6,109.2 C496.3,116.5 480.9,123.9 465.6,131.2 C465.5,131.3 465.3,131.4 465.2,131.4 C490.9,119.1 516.5,106.8 542.2,94.5 C557.5,87.2 572.9,79.8 588.2,72.5 C588.3,72.5 588.5,72.4 588.6,72.3 L588.6,72.3 L588.6,72.3 Z" id="Shape"></path>
                    <path d="M175.3,288.4 L71.3,158.1 L71.4,158 L71.4,157.9 C71.4,157.9 71.5,157.8 71.6,157.8 C71.8,157.7 71.8,157.7 71.9,157.7 L72.5,158.4 L176,288.2 L175.8,288.2 L175.7,288.3 C175.4,288.4 175.4,288.4 175.3,288.4 L175.3,288.4 L175.3,288.4 Z" id="Shape"></path>
                    <path d="M175.7,288.1 C159.4,267.7 143.2,247.3 126.9,226.9 C108.7,204.1 90.5,181.2 72.3,158.4 C72.1,158.2 72,158 71.8,157.8 C71.8,157.8 71.4,158.1 71.4,158 C87.7,178.4 103.9,198.8 120.2,219.2 C138.4,242 156.6,264.9 174.8,287.7 C175,287.9 175.1,288.1 175.3,288.3 C175.3,288.3 175.7,288.1 175.7,288.1 L175.7,288.1 L175.7,288.1 Z" id="Shape"></path>
                    <path d="M130.5,354.7 C130.6,354.7 130.6,354.6 130.7,354.6 C130.8,354.6 130.8,354.5 130.9,354.5 L512.3,195.9 L512.4,196.1 C512.3,196.1 512.3,196.2 512.2,196.2 C512.1,196.2 512.1,196.3 512,196.3 L130.6,354.9 L130.5,354.7 L130.5,354.7 Z" id="Shape"></path>
                    <path d="M512.4,196 C500,201.2 487.5,206.3 475.1,211.5 C445.2,223.9 415.2,236.4 385.3,248.8 C348.9,263.9 312.5,279.1 276.1,294.2 C244.3,307.4 212.5,320.6 180.7,333.9 C164.5,340.6 148.3,347.4 132.2,354.1 C131.8,354.3 131.4,354.4 131,354.6 C130.9,354.7 130.7,354.8 130.6,354.8 C143,349.6 155.5,344.5 167.9,339.3 C197.8,326.9 227.7,314.4 257.7,302 C294.1,286.9 330.5,271.7 366.9,256.6 C398.7,243.4 430.5,230.2 462.3,216.9 C478.5,210.2 494.7,203.4 510.8,196.7 C511.2,196.5 511.6,196.4 512,196.2 C512.1,196.2 512.2,196.1 512.4,196 L512.4,196 L512.4,196 Z" id="Shape"></path>
                    <path d="M390.7,424.4 L316.2,303.2 L316.3,303.1 C316.7,302.8 316.7,302.8 316.8,302.8 L347.2,352.2 L391.3,424 L391.2,424.1 C390.8,424.4 390.8,424.4 390.7,424.4 L390.7,424.4 L390.7,424.4 Z" id="Shape"></path>
                    <path d="M316.4,303.3 C331.1,327.2 345.8,351.1 360.4,375 C370.5,391.5 380.6,407.9 390.7,424.4 L391.1,424.2 C376.4,400.3 361.7,376.4 347.1,352.5 C337,336 326.9,319.6 316.8,303.1 C316.8,303 316.4,303.3 316.4,303.3 L316.4,303.3 L316.4,303.3 Z" id="Shape"></path>
                    <path d="M420.4,336.8 L334.2,179.9 C334.2,179.8 334.2,179.8 334.7,179.5 L334.8,179.5 L421.1,336.5 L421.1,336.5 C420.9,336.5 420.5,336.8 420.4,336.8 L420.4,336.8 L420.4,336.8 Z" id="Shape"></path>
                    <path d="M334.2,179.8 C346.3,201.8 358.3,223.7 370.4,245.7 C386.1,274.4 401.9,303 417.6,331.7 C418.5,333.4 419.4,335 420.4,336.7 L420.8,336.5 C408.7,314.5 396.7,292.6 384.6,270.6 C368.9,241.9 353.1,213.3 337.4,184.6 C336.5,182.9 335.6,181.3 334.6,179.6 C334.6,179.6 334.2,179.8 334.2,179.8 L334.2,179.8 L334.2,179.8 Z" id="Shape"></path>
                    <path d="M140.7,542.4 L74.5,487.4 L74.6,487.2 C74.6,487.2 74.6,487.2 74.6,487.1 L74.6,487 L74.8,487 C74.9,487 74.9,486.9 74.9,486.9 L167.8,450.4 L178.4,414.4 L10.1,426 L10.1,425.8 C10.1,425.8 10.2,425.7 10.5,425.3 C10.5,425.2 10.6,425 10.8,424.8 C11,424.5 11.3,424.1 11.4,423.8 C11.6,423.5 11.7,423.3 11.8,423.2 L115.9,280.2 L22.9,298.3 C22.6,298.4 22.2,298.5 21.9,298.6 C21.5,298.7 21.1,298.9 20.8,298.9 C20.6,298.9 20.5,298.8 20.4,298.7 C20.3,298.5 20.3,298.2 20.5,297.8 L55.4,201.9 L11.1,200.4 C10.8,200.4 10.7,200.4 10.6,200.2 C10.5,200.1 10.6,199.9 10.7,199.7 C10.8,199.6 10.8,199.5 10.9,199.3 L41.6,110.8 C41.7,110.6 41.7,110.5 41.8,110.3 C42,109.7 42.2,109.3 42.1,108.7 L21.7,12.3 C21.7,12.2 22.1,11.9 22.2,11.9 L48.4,25.2 L134,68.6 L133.3,29.5 C133.3,29.4 133.4,29.4 133.6,29.3 C133.7,29.3 133.7,29.2 133.7,29.2 L133.8,29.3 L133.9,29.2 L165.8,84.8 L183.1,93.5 L202.6,103.4 L224.3,14.4 C224.3,14.3 224.4,14.3 224.6,14.2 C224.7,14.2 224.7,14.2 224.7,14.1 L224.8,14.2 L224.9,14.1 L224.9,14.3 L225,14.2 L278.6,95 L352,101.2 L369.7,102.7 L369.7,102.7 L301.4,34.2 L301.5,34.1 C301.4,34.1 301.5,34 301.6,34 C301.8,33.9 301.8,33.9 301.9,33.9 L510,15.8 L510.6,15.7 C511,15.7 511.2,15.6 511.5,15.6 C512.3,15.6 512.3,16 512.3,17.2 L512.7,44.9 L556,27.4 C556.3,27.4 556.9,28.1 558.3,30.1 C558.4,30.3 558.5,30.4 558.5,30.5 L590.7,72.3 L590.5,72.3 C590.5,72.3 590.4,72.3 590.4,72.4 C590.2,72.5 590.2,72.5 590.1,72.5 L581.9,61.9 L560.8,34.5 C560.6,34.3 560.3,33.8 560,33.3 C558.8,31.5 556.6,28.1 555.5,28.1 L555.3,28.1 L512.8,45.3 L513.9,114.9 L629.7,124.6 C629.7,124.6 629.7,124.5 629.8,124.5 C630,124.3 630,124 630,123.7 C630,123.4 630,123.1 630.3,122.8 C632.8,120.5 635.3,118.2 637.8,116 C640.3,113.8 642.9,111.5 645.3,109.2 C658.3,97 671.6,84.7 684.5,72.7 C697.4,60.8 710.7,48.4 723.7,36.3 C723.8,36.2 723.9,36.2 723.9,36.2 C724,36.2 724,36.1 724.1,36.1 L724.2,36.2 L630.4,124.2 C630.1,124.5 629.9,124.7 629.7,124.8 L629.7,124.8 C629.6,124.8 629.5,124.9 629.5,124.9 L629.4,124.9 L629.4,124.9 C629.2,125 629.1,125 628.9,125 L628.3,125 L513.8,115.5 L580.2,150.1 C580.3,150.2 580.5,150.3 580.9,150.4 C583.7,151.8 586.3,153.1 586.5,153.6 L586.5,153.6 L586.5,153.7 L528.3,260.8 C528.3,260.9 527.9,261.1 527.8,261.1 L520.3,253.6 L455.8,189 L433.9,187.3 L384.8,183.4 L317.8,299.7 C317.7,299.9 317.6,300.2 317.4,300.5 C317,301.5 316.4,302.8 315.6,303 L274.9,314.8 L391.6,423.3 L391.5,423.4 C391.6,423.4 391.5,423.5 391.4,423.5 C391.3,423.6 391.2,423.6 391.1,423.6 L288.7,407.9 L287.8,407.8 C286.6,407.6 285.4,407.4 284.2,407.4 L283.4,407.4 L281.4,407.5 L236.1,506.8 C236.1,506.9 236,506.9 235.8,507 C235.7,507 235.7,507.1 235.6,507.1 L235.4,507.1 L214.5,432.6 L168.1,450.8 L159.2,481.2 L141.2,542 C141.2,542.1 140.8,542.4 140.7,542.4 L140.7,542.4 L140.7,542.4 Z M75.2,487.1 C75.2,487.1 75.3,487.1 75.3,487.2 L140.5,541.3 C140.6,541.4 140.7,541.5 140.8,541.6 L167.7,450.8 L75.6,487 C75.4,487.1 75.3,487.1 75.2,487.1 L75.2,487.1 Z M235.9,505.7 C235.9,505.8 235.9,505.9 236,506 L280.9,407.5 L277.6,407.7 L276.8,408 L215.3,432.2 L235.9,505.7 L235.9,505.7 Z M168.4,450.2 L214.6,432.1 L209.1,412.3 L179.1,414.4 L168.4,450.2 L168.4,450.2 Z M215.2,431.9 L276.7,407.7 L209.7,412.3 L215.2,431.9 L215.2,431.9 Z M10.6,425.4 C10.6,425.5 10.7,425.5 10.8,425.5 L178.6,414 L194.5,360.2 L188.7,339.5 L130.8,356.3 L130.7,356.1 C131.2,356 132.3,351.3 132.7,349.6 C132.9,348.9 133,348.4 133.1,348.2 L157,272.2 L116.5,280.1 L91.4,314.6 L11.7,424.1 C11.6,424.2 11.4,424.4 11.3,424.6 C11.2,424.7 11.1,424.8 11,424.9 C10.8,425.1 10.7,425.2 10.6,425.4 L10.6,425.4 Z M285.4,406.7 C287,406.7 288.6,407 290.2,407.4 C291,407.6 291.8,407.7 292.5,407.8 L390.4,422.8 L274.1,314.8 L257.7,319.6 L202.3,335.6 L197.5,352 L195.1,360 L195.1,360.1 L209.6,411.8 L278,407.1 L278.2,407 L281.4,405.8 C281.5,405.7 281.6,405.7 281.7,405.6 C281.8,405.5 281.9,405.5 282,405.5 L282.1,405.5 L282.2,405.6 C282.3,405.7 282.2,405.8 282.1,406.1 L281.7,406.9 L284.8,406.7 C284.9,406.7 285.2,406.7 285.4,406.7 L285.4,406.7 Z M179.1,414 L208.9,412 L194.7,361.3 L179.1,414 L179.1,414 Z M281.4,406.2 C281.2,406.3 280.9,406.4 280.4,406.5 C280.3,406.5 280.1,406.6 280.1,406.6 L278.8,407.1 L281,406.9 L281.4,406.2 L281.4,406.2 Z M194.8,359.1 L201.7,335.8 L189.3,339.4 L194.8,359.1 L194.8,359.1 Z M131.3,355.7 C132,355.4 133.7,354.9 136.5,354.3 C137.1,354.2 137.5,354.1 137.7,354 L188.6,339.3 L175.7,293.4 C175.6,293 175.5,292.7 175.4,292.4 C175,291.4 174.7,290.5 175.7,289.7 L216.6,261.3 L216,260.7 L170.1,269.7 L157.5,272.1 L131.3,355.7 L131.3,355.7 Z M176.5,289.4 C175.3,290.2 175.4,290.5 175.8,291.6 C175.9,291.9 176,292.2 176.1,292.6 L189.1,339.1 L201.8,335.4 L201.9,334.8 L222.1,266.5 L216.7,261.5 L176.5,289.4 L176.5,289.4 Z M202.4,335.2 L273.8,314.5 L222.6,266.9 L202.4,335.2 L202.4,335.2 Z M274.6,314.4 L306.1,305.2 L315.6,302.4 C315.6,302.3 315.7,302.1 315.8,301.9 L384.3,183.1 L334.5,179.1 L334.5,179.4 C334.3,180.2 332.6,181.1 331.5,181.8 L331,182.1 C328.2,184.1 323.6,187.3 317,191.8 L281.9,216.2 L305.9,242.9 L305.8,243 L305.8,243.1 C305.8,243.1 305.7,243.2 305.6,243.2 L305.4,243.3 L225,259.1 L222.9,266.3 L274.6,314.4 L274.6,314.4 Z M21.7,296 C21.7,296 21.6,296.2 21.6,296.4 C21.3,297.5 21.1,298.1 20.9,298.4 L116.3,279.9 L141,246 L164.9,213.2 L156.4,205.3 L88,202.9 L56,201.8 L21.7,296 L21.7,296 Z M116.8,279.7 L157.1,271.9 L170.1,230.6 C170.9,228.1 171.7,225.5 172.6,223.1 L173.3,220.9 L165.2,213.4 L116.8,279.7 L116.8,279.7 Z M173.5,221.3 C172.9,223 172.4,224.8 171.8,226.5 L157.6,271.8 L215.7,260.5 L173.5,221.3 L173.5,221.3 Z M222.4,265.8 L224.4,259.2 L218.4,260.4 L217.7,260.9 L217.3,261.2 L222.4,265.8 L222.4,265.8 Z M217.1,260.9 L217.8,260.4 L216.8,260.6 L217.1,260.9 L217.1,260.9 Z M216.5,260.4 L217.6,260.1 L218.5,259.9 L225.5,255 L233.8,226.8 L239.3,208 C238.8,208 236.7,207.9 235.3,207.8 C234.7,207.8 234.2,207.7 234.1,207.7 L178,205.8 C176.8,210.7 175.2,215.6 173.6,220.3 L173.6,220.4 L216.5,260.4 L216.5,260.4 Z M527.8,260.2 L585.7,153.8 L585.7,153.7 C585.5,153 582.4,151.6 581,151 C580.6,150.8 580.3,150.7 580.2,150.6 L513.8,116 L515,193.4 C515,193.5 515,193.5 514.8,193.6 C514.8,193.6 514.8,193.7 514.7,193.7 L514.5,193.8 L456.9,189.2 L527.8,260.2 L527.8,260.2 Z M219.2,259.8 L224.5,258.8 L225.5,255.5 L219.2,259.8 L219.2,259.8 Z M225.1,258.7 L305.2,243.1 C305.1,243 305,243 304.9,242.8 L281.4,216.6 L226.2,255 L225.1,258.7 L225.1,258.7 Z M239.2,207.6 C239.6,207.6 239.9,207.7 240,207.9 C240.2,208.2 240,208.5 239.8,209 C239.7,209.2 239.6,209.5 239.5,209.8 L226.2,254.7 L281.1,216.6 L241,171.7 L197.8,168.3 L182,190.1 L181.2,193.4 L178.2,205.6 L239.2,207.6 L239.2,207.6 Z M173.4,220.3 C175.1,215.3 176.4,211 177.4,206.7 L177.6,206 L170.6,205.8 L165.4,213 L173.4,220.3 L173.4,220.3 Z M281.8,216.1 L314,193.8 C314.2,193.7 317,191.7 317,191.7 L330.7,182.2 C330.8,182.2 330.9,182.1 331,182 C333.6,180.1 334,179.7 334,179.6 L333.8,179.4 L333.6,179.2 L270.5,174.2 L242,171.9 L281.8,216.1 L281.8,216.1 Z M165.2,212.6 L170.2,205.7 L157.3,205.3 L165.2,212.6 L165.2,212.6 Z M177.7,205.5 L181.2,191.2 L171,205.3 L177.7,205.5 L177.7,205.5 Z M170.6,205.3 L177.2,196.2 L181.5,190.3 L187.1,167.5 L136.5,163.4 L136.9,184.9 C136.9,186.4 137,186.5 138,187.3 L156.9,204.8 L170.6,205.3 L170.6,205.3 Z M155.8,204.8 L136.9,187.2 C136,186.4 136.1,185.2 136.2,184 L136.2,182.9 L135.8,163.3 L71.8,158.2 L56.1,201.4 L155.8,204.8 L155.8,204.8 Z M41.4,102.8 C41.5,103.4 41.7,104 41.8,104.5 C42.3,106.7 42.8,108.6 42,111 L11.3,199.6 C11.2,199.7 11.2,199.9 11.2,199.9 L11.5,199.9 L55.6,201.4 L71.3,158 C71.3,157.9 71.7,157.7 71.8,157.7 L135.8,162.8 L134.1,69.4 L22.5,12.8 L41.4,102.8 L41.4,102.8 Z M514.3,193.2 L514.3,193 L513.1,115.5 L512.1,115 L492,113.3 L428.1,108 L409,141.1 L456.3,188.5 L514.3,193.2 L514.3,193.2 Z M182.3,189 L197.4,168.2 L187.5,167.4 L182.3,189 L182.3,189 Z M455.3,188.5 L408.7,141.8 L385,182.8 L455.3,188.5 L455.3,188.5 Z M384.6,182.8 L408.4,141.4 L370.3,103.2 L369.8,103.2 L369.3,103.2 L302.1,130.4 L334.2,178.8 L384.6,182.8 L384.6,182.8 Z M333.3,178.7 L301.4,130.7 L276.7,140.7 C276.2,140.9 275.9,141 275.5,141 C275.2,141 274.8,140.8 274.2,140.5 L233.2,119.7 L216.2,143.1 L241.5,171.3 L333.3,178.7 L333.3,178.7 Z M240.6,171.2 L215.9,143.6 L198.3,167.8 L240.6,171.2 L240.6,171.2 Z M197.8,167.8 L215.5,143.4 L198.2,124 L187.7,167 L197.8,167.8 L197.8,167.8 Z M187.1,167 L197.7,123.5 L184.3,108.6 L172.1,95 C171.7,94.6 171.4,94.2 171,93.8 C170,92.8 169,91.7 168.3,90.4 L165.3,85.2 L134.8,69.7 L136.5,162.8 L187.1,167 L187.1,167 Z M216,142.8 L232.9,119.5 L203,104.4 L198.4,123.3 L216,142.8 L216,142.8 Z M408.7,140.8 L427.6,108 L371.3,103.3 L408.7,140.8 L408.7,140.8 Z M271.9,138.6 C272,138.7 272.3,138.8 272.6,139 C273.6,139.6 275.2,140.6 275.8,140.6 L275.9,140.6 L301.3,130.3 L278.1,95.4 L260.6,94 L252.9,93.4 L252.5,93.4 L252.4,93.4 L251.8,94.2 L233.6,119.1 L271.9,138.6 L271.9,138.6 Z M301.9,130.2 L368.7,103.2 L279,95.7 L301.9,130.2 L301.9,130.2 Z M168.4,89.2 C169.2,90.6 170.1,91.6 171.3,93 L198,122.7 L202.5,104.1 L166.4,85.8 L168.4,89.2 L168.4,89.2 Z M233.3,119.1 L251.7,93.8 C252,93.5 252.2,93.2 252.5,93.1 L252.5,93.1 C252.6,93.1 252.8,93 252.9,93 L253.1,93 L277.8,95.1 L224.7,15.2 L203.1,103.8 L233.3,119.1 L233.3,119.1 Z M513.1,114.7 L512.1,45.4 L370.7,102.6 L370.9,102.8 L428,107.5 L444.2,79.4 C444.2,79.3 444.6,79.1 444.7,79.1 L466.9,90.7 L512.8,114.6 L513.1,114.7 L513.1,114.7 Z M511.1,114.5 L444.5,79.7 L428.4,107.6 L511.1,114.5 L511.1,114.5 Z M302.6,34.4 L370.5,102.4 L512.1,45.1 L511.7,20.8 L511.7,19.9 C511.8,18.7 511.9,16.7 511.4,16.2 C511.3,16.1 511.2,16.1 511.1,16.1 L302.3,34.2 C302.4,34.3 302.5,34.3 302.6,34.4 L302.6,34.4 Z M164.7,84.3 L134,30.8 L134.7,69.1 L164.7,84.3 L164.7,84.3 Z" id="Shape"></path>
                    <path d="M723.7,36.2 C697.8,60.5 671.2,84.8 645.3,109.1 C640.4,113.7 635.1,118.1 630.2,122.7 C629.7,123.2 630.2,123.9 629.7,124.4 C629.1,124.9 629.3,124.6 629.7,124.6 C629.2,124.6 628.8,124.5 628.3,124.5 C620,123.8 611.8,123.1 603.5,122.4 C565.8,119.3 528,116.1 490.3,113 C444.2,109.2 398.1,105.3 352,101.5 C321.4,99 290.9,96.4 260.3,93.9 C257.9,93.7 255.5,93.5 253.1,93.3 C252.4,93.2 252.2,93.4 251.7,94 C247.6,99.6 243.5,105.3 239.4,110.9 C218.7,139.4 197.9,167.9 177.2,196.3 C149.7,234 122.3,271.8 94.8,309.5 C72.6,340 50.3,370.6 28.1,401.1 C22.7,408.5 17.3,416 11.9,423.4 C11.7,423.7 10.3,426 10.1,426 C12.4,425.8 14.7,425.7 17,425.5 C52.3,423.1 87.7,420.7 123,418.2 C166.1,415.2 209.3,412.3 252.4,409.3 C262.7,408.6 273.1,407.9 283.4,407.2 C285.2,407.1 286.9,407.4 288.7,407.7 C296.7,408.9 304.7,410.2 312.8,411.4 C338.9,415.4 365,419.4 391.1,423.4 C391.2,423.4 391.5,423.1 391.5,423.2 C375.9,408.7 360.3,394.2 344.7,379.7 C311.8,349.2 279,318.6 246.1,288.1 C216.8,260.9 187.6,233.7 158.3,206.5 C151.5,200.2 144.8,193.9 138,187.7 C136.8,186.6 136.7,186.6 136.6,185 C136.5,179.6 136.4,174.2 136.3,168.8 C135.5,127.1 134.8,85.4 134,43.7 C133.9,39.2 133.8,34.6 133.8,30.1 C133.8,29.2 133.6,30.2 133.4,29.9 C133.7,30.5 134.1,31 134.4,31.6 C136.2,34.7 137.9,37.7 139.7,40.8 C149.2,57.4 158.8,74.1 168.3,90.7 C169.3,92.4 170.9,93.8 172.1,95.2 C176.2,99.7 180.3,104.3 184.3,108.8 C198,124 211.7,139.3 225.3,154.5 C250.8,183 276.4,211.4 301.9,239.9 C302.8,241 303.8,242 304.7,243.1 C305.2,243.6 305.6,243.4 305.3,243.5 C302.7,244 300.2,244.5 297.6,245 C283.9,247.7 270.3,250.3 256.6,253 C212.6,261.6 168.6,270.1 124.5,278.7 C91.9,284.7 59,291 26.1,297.4 C24.3,297.8 22.5,298.1 20.7,298.5 C20.9,298.5 21.5,296.2 21.6,296 C22.4,293.7 23.3,291.3 24.1,289 C30.9,270.4 37.6,251.8 44.4,233.2 C51.7,213.2 58.9,193.3 66.2,173.3 C68,168.4 69.7,163.6 71.5,158.7 C71.6,158.4 71.7,158.1 71.8,157.8 C71.7,157.9 71.2,158 71.6,158 C72.2,158 72.8,158.1 73.3,158.1 C96.1,159.9 119,161.8 141.8,163.6 C184.7,167 227.6,170.5 270.5,173.9 C316.1,177.6 361.8,181.2 407.4,184.9 C438.4,187.4 469.5,189.9 500.5,192.4 C505.1,192.8 509.7,193.1 514.3,193.5 L514.7,193.3 C514.2,160.6 513.7,127.9 513.2,95.2 C512.9,74.7 512.6,54.2 512.3,33.7 C512.2,28.4 512.1,23 512.1,17.7 C512.1,15.4 512.3,15.6 510,15.8 C474.7,18.9 439.4,21.9 404.1,25 C370.3,27.9 336.6,30.9 302.8,33.8 C302.5,33.8 302.1,33.9 301.8,33.9 C301.7,33.9 301.4,34.2 301.4,34.1 C317.4,50.1 333.4,66.2 349.4,82.2 C381.6,114.5 413.8,146.8 446,179.1 C470.7,203.8 495.4,228.6 520,253.3 L527.4,260.7 L527.8,260.5 C544.8,229.2 561.8,197.9 578.8,166.7 C581.2,162.3 583.6,157.9 586,153.4 C586.3,152.9 580.4,150.2 579.8,149.9 C563.6,141.5 547.4,133 531.2,124.6 C502.2,109.5 473.3,94.4 444.3,79.3 L443.9,79.5 C430.7,102.4 417.5,125.3 404.3,148.2 C381.9,187 359.5,225.9 337.1,264.7 C330.5,276.1 324,287.4 317.4,298.8 C316.8,299.9 316.2,300.9 315.6,302 C315.1,302.9 315.6,302.4 315.4,302.5 C311.9,303.5 308.5,304.5 305,305.5 C265.2,317 225.3,328.6 185.5,340.1 C169.5,344.7 153.4,349.4 137.4,354 C136.7,354.2 131,355.4 130.8,355.8 C131.9,352.2 133,348.6 134.2,345.1 C146.6,305.5 159,266 171.5,226.4 C173.7,219.4 176.2,212.4 178,205.2 C181.3,191.8 184.5,178.4 187.8,165 C198.1,122.7 208.5,80.4 218.8,38.1 C220.3,32 221.8,25.8 223.3,19.7 C223.7,18.2 224,16.7 224.4,15.2 C224.7,14 224.2,14.5 224.4,14.7 C230.5,23.9 236.6,33.1 242.7,42.3 C267,78.8 291.2,115.4 315.5,151.9 C321.6,161.1 327.7,170.3 333.8,179.5 C334.2,180 315.1,192.8 313.7,193.8 C278,218.6 242.2,243.4 206.5,268.2 C196.2,275.4 185.9,282.5 175.5,289.7 C174.2,290.6 175.1,291.8 175.5,293.3 C176.9,298.2 178.2,303.1 179.6,307.9 C191,348.6 202.4,389.3 213.8,430 C221,455.6 228.1,481.2 235.3,506.8 L235.7,506.6 C250.2,474.9 264.6,443.1 279.1,411.4 C279.9,409.6 280.7,407.8 281.5,406.1 C281.8,405.4 281.5,405.7 281,405.9 C277.5,407.3 274,408.6 270.5,410 C254.3,416.3 238.2,422.7 222,429.1 C181.3,445.1 140.5,461.1 99.8,477.1 C91.4,480.4 83,483.7 74.6,487 C74.5,487 74.2,487.3 74.2,487.2 C96.3,505.5 118.3,523.8 140.4,542.2 L140.8,542 C146.8,521.6 152.8,501.3 158.9,480.9 C171.6,437.9 184.3,394.9 197,352 C208.4,313.6 219.7,275.1 231.1,236.7 C233.8,227.7 236.4,218.7 239.1,209.6 C239.4,208.4 240.2,207.6 238.8,207.6 C235.1,207.5 231.3,207.3 227.6,207.2 C187.3,205.8 147,204.5 106.7,203.1 C74.9,202 43.1,201 11.3,199.9 C10.6,199.9 10.6,200 10.9,199.2 C11.7,197 12.4,194.8 13.2,192.7 C16.4,183.6 19.5,174.5 22.7,165.4 C29,147.2 35.3,129.1 41.6,110.9 C42.6,108 41.7,105.8 41,102.8 C39.1,93.8 37.2,84.9 35.3,75.9 C31.1,56.1 27,36.3 22.8,16.5 C22.5,15 22.2,13.6 21.9,12.1 C22,12.5 21.2,12.2 21.7,12.4 C22,12.6 22.3,12.7 22.6,12.9 C25.8,14.5 28.9,16.1 32.1,17.7 C45.8,24.7 59.6,31.7 73.3,38.6 C113.8,59.2 154.4,79.7 194.9,100.3 C221.2,113.6 247.5,127 273.8,140.3 C275.1,140.9 275,140.9 276.4,140.4 C279.6,139.1 282.9,137.8 286.1,136.5 C299.9,130.9 313.7,125.3 327.5,119.7 C369.8,102.9 411.7,86 453.5,69 C485.2,56.2 516.9,43.3 548.7,30.5 C550.9,29.6 553,28.8 555.2,27.9 C556.6,27.3 560,33.3 560.9,34.4 C570.7,47.1 580.4,59.7 590.1,72.4 C590.1,72.4 590.5,72.1 590.5,72.2 C579.8,58.3 569.1,44.5 558.5,30.6 C558.3,30.3 556.4,27.5 556.1,27.6 C555.5,27.8 554.9,28.1 554.2,28.4 C550.7,29.8 547.2,31.2 543.7,32.7 C509.3,46.6 474.9,60.6 440.4,74.5 C399.5,91 358.7,107.6 317.8,124.1 C305.8,128.9 293.9,133.8 281.9,138.6 C279.9,139.4 278,140.2 276,141 C275.4,141.3 272.4,139.2 271.9,138.9 C242.3,123.9 212.7,108.9 183.1,93.9 C143.3,73.7 103.4,53.5 63.6,33.3 C49.8,26.3 36.1,19.3 22.3,12.3 L21.9,12.5 C28.7,44.6 35.4,76.7 42.2,108.8 C42.4,109.6 42,110.2 41.8,110.9 C40.9,113.6 39.9,116.3 39,118.9 C35.7,128.5 32.3,138.1 29,147.7 C23,164.9 17.1,182.1 11.1,199.3 C10.9,200 10.5,200.2 11.3,200.2 C12.5,200.2 13.7,200.3 14.9,200.3 C20.3,200.5 25.6,200.7 31,200.8 C50.1,201.4 69.2,202.1 88.2,202.7 C131.2,204.1 174.2,205.6 217.1,207 C222.9,207.2 228.7,207.4 234.5,207.6 C234.9,207.6 239.8,207.9 239.9,207.8 C238,214.1 236.2,220.4 234.3,226.7 C223.7,262.4 213.2,298.2 202.6,333.9 C189.6,377.8 176.6,421.8 163.6,465.7 C156.2,490.7 148.8,515.7 141.4,540.7 C141.3,541.1 141.1,541.6 141,542 C141.2,541.4 141.5,541.8 140.7,541.2 C139.9,540.5 139,539.8 138.2,539.1 C131.2,533.3 124.2,527.5 117.2,521.7 C103.3,510.1 89.4,498.6 75.4,487 C74.9,486.6 74.4,487.1 75.7,486.6 C77.1,486.1 78.5,485.5 79.9,485 C85.4,482.8 90.9,480.7 96.5,478.5 C115,471.2 133.5,463.9 152.1,456.7 C190.8,441.5 229.4,426.3 268.1,411.1 C272.2,409.5 276.3,407.9 280.4,406.3 C280.6,406.2 281.9,405.9 282,405.7 C281.5,406.9 280.9,408 280.4,409.2 C272.4,426.8 264.3,444.4 256.3,462 C249.6,476.8 242.8,491.5 236.1,506.3 C235.9,506.6 236.3,506.4 236.1,505.5 C235.7,504.1 235.3,502.7 234.9,501.4 C233.3,495.8 231.8,490.2 230.2,484.6 C218.6,443.1 206.9,401.6 195.3,360.1 C190.3,342.2 185.3,324.3 180.3,306.4 C179,301.7 177.7,297.1 176.4,292.4 C175.9,290.5 175.3,290.2 176.8,289.1 C206.1,268.8 235.4,248.5 264.7,228.1 C281.8,216.2 298.9,204.4 315.9,192.5 C320.9,189 326,185.5 331,182 C331.7,181.5 335.2,179.8 334.6,178.9 C316,150.9 297.4,122.9 278.8,94.9 C260.9,68 243.1,41 225.2,14.1 C225.2,14.1 225.2,14 225.1,14 L224.7,14.2 C217.4,44.2 210,74.3 202.7,104.3 C194.4,138.3 186.1,172.4 177.8,206.4 C175.8,214.5 172.8,222.4 170.4,230.4 C163.8,251.5 157.2,272.6 150.5,293.7 C144.8,311.8 139.1,329.9 133.4,348 C133.1,348.8 131.6,355.8 130.9,356 C133.9,355.1 136.9,354.3 139.8,353.4 C179.1,342 218.4,330.6 257.8,319.2 C274.4,314.4 291.1,309.6 307.7,304.8 C310.4,304 313.1,303.2 315.8,302.5 C316.8,302.2 317.5,300 317.9,299.3 C334.8,270.1 351.6,240.8 368.5,211.6 C389.8,174.7 411,137.9 432.3,101 C436.5,93.7 440.7,86.4 444.9,79.2 C444.8,79.3 444.3,79.3 444.8,79.5 C445.3,79.7 445.7,80 446.1,80.2 C448,81.2 449.8,82.2 451.7,83.1 C458.6,86.7 465.5,90.3 472.5,93.9 C508.5,112.7 544.5,131.5 580.5,150.2 C581.3,150.6 586.5,152.7 586.1,153.6 C583.6,158.3 581,162.9 578.5,167.6 C568,186.9 557.5,206.3 546.9,225.6 C542.4,234 537.8,242.3 533.3,250.7 C532,253.2 530.6,255.6 529.3,258.1 C529,258.7 528.6,259.3 528.3,260 C527.8,260.9 528.2,260.1 528.4,260.3 C523.6,255.5 518.9,250.8 514.1,246 C486.8,218.6 459.5,191.2 432.1,163.9 C400.8,132.5 369.5,101.2 338.2,69.8 C328.5,60.1 318.8,50.3 309,40.6 C306.9,38.5 304.8,36.4 302.8,34.3 C302.2,33.7 302.3,33.9 301.9,33.9 C302.8,33.8 303.8,33.7 304.7,33.7 C340.9,30.6 377.1,27.4 413.3,24.3 C446,21.5 478.8,18.6 511.5,15.8 C512.7,15.7 512.1,19.7 512.1,20.6 C512.2,27.1 512.3,33.6 512.4,40.1 C512.7,61.6 513.1,83.1 513.4,104.6 C513.7,126.1 514.1,147.6 514.4,169.1 C514.5,175.6 514.6,182.1 514.7,188.6 C514.7,190 514.7,191.5 514.8,192.9 C514.8,193.7 515.4,193.2 514.9,193.2 C495.3,191.6 475.8,190.1 456.2,188.5 C414.7,185.2 373.1,181.8 331.6,178.5 L193,167.4 C159.5,164.7 126,162 92.5,159.3 C85.7,158.8 78.9,158.2 72.2,157.7 C72.1,157.7 71.8,157.9 71.8,157.9 C59.9,190.6 48,223.3 36.1,256 C31.1,269.9 26,283.8 21,297.6 C20.4,299.3 22,298.3 23.4,298 C27.5,297.2 31.6,296.4 35.7,295.6 C73.4,288.3 111.2,280.9 148.9,273.6 C190.8,265.5 232.6,257.3 274.4,249.2 C284.9,247.2 295.3,245.1 305.8,243.1 C305.9,243.1 306.2,242.8 306.2,242.9 C285.9,220.3 265.5,197.6 245.2,175 C220.6,147.6 196.1,120.3 171.5,92.9 C170.4,91.6 169.4,90.6 168.6,89.1 C164.8,82.5 161,75.9 157.3,69.4 C149.6,56 141.9,42.6 134.3,29.2 L133.9,29.4 C134.5,63.8 135.2,98.1 135.8,132.5 C136.1,149.2 136.4,166 136.7,182.7 C136.7,184.1 136.2,185.9 137.3,186.9 C139.3,188.8 141.3,190.6 143.3,192.5 C167.3,214.8 191.3,237.1 215.3,259.5 C249.3,291.1 283.2,322.7 317.2,354.2 C340.3,375.6 363.3,397.1 386.4,418.5 C388,420 389.6,421.5 391.3,423 C391.7,423.3 391.2,422.8 391.9,422.9 C391.5,422.8 391,422.8 390.6,422.7 C388.1,422.3 385.6,421.9 383.1,421.6 C362.1,418.4 341.1,415.2 320.1,411.9 C311,410.5 302,409.1 292.9,407.7 C290.5,407.3 287.7,406.5 285.2,406.6 C276.1,407.2 267,407.8 257.9,408.5 C215.6,411.4 173.2,414.3 130.9,417.2 C94.1,419.7 57.3,422.2 20.5,424.8 C17.5,425 14.5,425.2 11.4,425.4 C10.3,425.5 11.6,424.4 12,423.8 C16.9,417.1 21.8,410.3 26.7,403.6 C48.4,373.9 70,344.1 91.7,314.4 C119.2,276.6 146.7,238.9 174.2,201.1 C195.6,171.8 216.9,142.4 238.3,113.1 C242.9,106.7 247.6,100.4 252.2,94 C252.5,93.6 252.8,93.2 253,92.9 C252.7,93.3 252.6,93.1 253.4,93.2 C256,93.4 258.5,93.6 261.1,93.8 C292.1,96.4 323,99 354,101.5 C400.2,105.3 446.3,109.2 492.5,113 C529.9,116.1 567.4,119.2 604.8,122.4 C612.8,123.1 620.7,123.7 628.7,124.4 C629.8,124.5 630,124.4 630.8,123.7 C634.8,119.9 638.9,116.1 642.9,112.3 C670,86.9 697.1,61.5 724.1,36.1 C724.2,36 724.3,35.9 724.5,35.8 C724,36.1 723.8,36.1 723.7,36.2 L723.7,36.2 L723.7,36.2 Z" id="Shape"></path>
                    <path d="M20.8,574.5 L73,489.6 C73.4,488.9 73.9,488.3 74.5,487.6 L74.7,487.2 C75,486.6 75.7,486.2 76.4,485.8 C77.7,484.7 79.2,483.7 80.6,482.8 C81.4,482.3 82.3,481.7 83.1,481.1 L264.2,352.5 C264.4,352.4 264.5,352 264.6,351.7 C264.6,351.6 264.7,351.5 264.7,351.4 L305.3,243.3 L305.4,243.2 C305.4,243.1 305.6,243 305.7,243 L305.7,243 L305.7,243 L305.8,243 L438.4,253.4 L463.9,136.6 C463.9,136.5 464,136.3 464,136 C464.3,134.9 465.1,131.7 465,131.4 L454.6,125.1 L301.9,32.1 C301.7,32 301.5,31.8 301.2,31.6 C300.6,31.1 299.8,30.6 299.2,30.6 C299.1,30.6 298.9,30.6 298.8,30.7 L240.4,57.9 L252.7,93 C252.7,93.1 252.7,93.1 252.4,93.3 C252.3,93.3 252.3,93.4 252.2,93.4 L252.1,93.3 L252,93.3 L239.6,58.1 L169.1,91 L166.2,99.8 L136.9,186.4 C136.9,186.5 136.8,186.5 136.6,186.6 C136.5,186.6 136.5,186.7 136.5,186.7 L136.4,186.6 L136.3,186.6 L94.3,95.7 L94,94.9 C93.3,93.4 92.8,92.1 91.7,90.9 L20.5,12.4 L20.6,12.3 L20.5,12.3 L20.5,12.3 L20.6,12.3 L20.7,12.2 C20.9,12 21,12 21,12 L221.1,14.1 L221.9,14.1 C222.3,14.1 222.8,14 223.3,14 C224.4,14 224.9,14.2 225.1,14.7 L240.2,57.7 L298.9,30.4 C299.1,30.3 299.3,30.2 299.6,30.2 C300.3,30.2 300.8,30.6 301.4,31.1 C301.6,31.3 301.9,31.4 302.1,31.6 L465.6,131.2 C465.7,131.3 465.8,131.7 464.7,135.6 C464.6,135.9 464.6,136.1 464.6,136.1 L439,253.4 L467.5,255.6 L467.7,255.6 L467.9,255.6 C468.1,255.6 468.2,255.6 468.2,255.7 C468.3,255.8 468.2,255.9 468.1,256.1 L420.9,336.3 C420.9,336.4 420.7,336.6 420.6,336.6 L420.5,336.6 L420.5,336.6 L420.5,336.6 L420.3,336.5 L438.4,253.7 L305.8,243.3 L265,351.8 C264.7,352.6 263.8,353.1 263,353.6 C262.7,353.8 262.5,353.9 262.3,354.1 L78,485.1 C77.7,485.3 77.4,485.5 77.1,485.7 L76.6,486 C75.9,486.6 75.3,487.2 74.7,487.8 L21.4,574.5 C21.3,574.6 21.2,574.6 21.1,574.7 C21,574.7 21,574.7 20.9,574.8 L20.8,574.5 L20.8,574.5 Z M421.2,335.1 L467.6,256.4 C467.7,256.3 467.7,256.2 467.7,256.2 C467.7,256.2 467.7,256.2 467.6,256.2 L467.3,256.2 L438.9,254 L421.2,335.1 L421.2,335.1 Z M91,89.2 C92.3,90.6 93.2,91.7 94,93.4 L136.4,185.4 C136.4,185.5 136.5,185.6 136.5,185.7 L168.1,92.3 C168.1,92.2 168.2,92.1 168.2,91.9 C168.3,91.6 168.4,91.3 168.6,91 L168.6,90.9 L168.7,90.8 C168.8,90.8 168.8,90.7 168.9,90.7 C170.2,90 171.5,89.4 172.9,88.8 C173.6,88.5 174.2,88.2 174.8,87.9 L239.5,57.8 L224.3,14.4 C224.3,14.4 224.1,14.3 222.7,14.3 C221.7,14.3 220.5,14.3 219.7,14.4 L219.1,14.4 L21.5,12.4 L91,89.2 L91,89.2 Z" id="Shape"></path>
                    <path d="M21.3,574.3 C37,548.9 52.6,523.5 68.2,498 C70.4,494.4 72.6,490.8 74.8,487.2 C75.4,486.3 77,485.5 77.9,484.9 C86.5,478.8 95,472.7 103.6,466.6 C134,445 164.4,423.5 194.8,401.9 C217.3,385.9 239.8,370 262.3,354 C263.1,353.4 264.6,352.8 265,351.8 C266.4,347.9 267.9,344.1 269.3,340.2 C275.6,323.4 281.9,306.5 288.3,289.7 C293.7,275.3 299.1,261 304.5,246.6 C304.9,245.4 305.4,244.3 305.8,243.1 C306,242.7 305.3,243.1 305.6,243.2 C305.9,243.2 306.2,243.2 306.5,243.3 C310.3,243.6 314.1,243.9 317.8,244.2 C353.3,247 388.7,249.8 424.2,252.5 C437.4,253.5 450.6,254.6 463.7,255.6 C464.9,255.7 466.1,255.8 467.3,255.9 C467.9,256 467.9,255.9 467.6,256.5 C465,260.9 462.5,265.2 459.9,269.6 C450.4,285.7 440.9,301.9 431.4,318 C428.2,323.5 424.9,329 421.7,334.5 C421.4,335.1 421,335.6 420.7,336.2 C420.3,336.8 420.8,336.8 420.8,336.5 C420.9,335.9 421,335.4 421.2,334.8 C427.1,307.9 432.9,281.1 438.8,254.2 C446.4,219.4 454,184.7 461.5,149.9 C462.5,145.3 463.5,140.6 464.5,136 C464.6,135.7 465.8,131.3 465.5,131.2 C459.2,127.4 453,123.6 446.7,119.8 C415.5,100.8 384.3,81.8 353.2,62.8 C339.8,54.6 326.4,46.5 312.9,38.3 C309.2,36.1 305.6,33.9 301.9,31.6 C300.9,31 299.9,29.9 298.8,30.4 C271.1,43.3 243.4,56.2 215.7,69.1 C202,75.5 188.4,81.8 174.7,88.2 C172.7,89.1 170.7,89.9 168.8,91 C168.3,91.3 168.3,91.9 168.1,92.4 C167.4,94.3 166.8,96.3 166.1,98.2 C156.2,127.5 146.2,156.8 136.3,186.1 C136,186.8 136.5,186.4 136.1,185.5 C135.3,183.8 134.5,182.1 133.8,180.4 C130.7,173.7 127.7,167.1 124.6,160.4 C116.7,143.3 108.8,126.1 100.9,109 C98.5,103.8 96.1,98.7 93.8,93.5 C93,91.7 92,90.7 90.7,89.2 L59.2,54.4 C47.9,41.9 36.6,29.4 25.2,16.9 C24,15.6 22.8,14.2 21.5,12.9 C21.3,12.7 21.1,12.4 20.9,12.2 C21,12.3 20.1,12.4 20.7,12.4 C23.3,12.4 25.9,12.5 28.5,12.5 C61,12.8 93.5,13.2 126,13.5 C157,13.8 188,14.2 219.1,14.5 C219.5,14.5 224.3,14.3 224.4,14.6 C225.8,18.5 227.2,22.5 228.5,26.4 C234.6,43.8 240.7,61.2 246.8,78.6 C248.5,83.5 250.3,88.5 252,93.4 L252.4,93.2 C243.4,67 234.2,40.8 225,14.7 C224.7,13.7 222,14.2 221.1,14.2 C216.6,14.2 212.2,14.1 207.7,14.1 C192,13.9 176.2,13.8 160.5,13.6 C123.4,13.2 86.2,12.8 49.1,12.4 C39.7,12.3 30.4,12.2 21,12.1 C20.9,12.1 20.6,12.4 20.6,12.3 C40.7,34.5 60.8,56.7 80.9,78.9 C84.5,82.9 88.1,86.8 91.7,90.8 C93,92.2 93.6,93.8 94.4,95.6 C101.1,110.2 107.9,124.9 114.6,139.5 C121.8,155.2 129.1,170.9 136.3,186.5 L136.7,186.3 C146.3,158.1 155.8,129.9 165.4,101.6 C166.6,98 167.8,94.4 169,90.8 C169,90.9 168.3,91.1 168.9,90.9 L170.1,90.3 C171.7,89.6 173.3,88.8 174.9,88.1 C188.7,81.7 202.6,75.2 216.4,68.8 C243.8,56 271.2,43.3 298.6,30.5 C299.6,30 300.9,31.4 301.8,31.9 C305.6,34.2 309.3,36.5 313.1,38.8 C326.6,47 340.2,55.3 353.7,63.5 C384.8,82.4 415.9,101.4 446.9,120.3 C452.9,124 459,127.7 465,131.3 C465.2,131.4 463.9,136.2 463.9,136.5 C462.9,141.2 461.8,146 460.8,150.7 C453.2,185.6 445.6,220.5 438,255.4 C432.2,281.9 426.4,308.5 420.6,335 C420.5,335.5 420.4,336 420.3,336.5 C420.3,336.4 420.7,336.4 420.7,336.3 C435.6,311 450.5,285.6 465.4,260.3 C466.2,258.9 467.1,257.5 467.9,256 C468.2,255.5 467.9,255.6 467.4,255.6 C463.9,255.3 460.3,255 456.8,254.8 C441,253.6 425.2,252.3 409.4,251.1 C376.5,248.5 343.5,245.9 310.6,243.3 C309,243.2 307.4,243 305.8,242.9 C305.7,242.9 305.4,243.1 305.4,243.1 C294.9,270.9 284.5,298.8 274,326.6 C271.5,333.1 269.1,339.6 266.6,346.2 C266,347.9 265.3,349.6 264.7,351.3 C264.6,351.6 264.5,352.2 264.2,352.4 C258.5,356.4 252.8,360.5 247.2,364.5 C218.6,384.8 190,405.1 161.4,425.4 C135.3,443.9 109.2,462.4 83.1,481 C79.4,483.6 75.4,485.6 73.1,489.4 C65,502.8 56.9,516 48.8,529.1 C39.5,544.2 30.2,559.4 20.9,574.5 C21,574.4 21.3,574.4 21.3,574.3 L21.3,574.3 L21.3,574.3 Z" id="Shape"></path>
                    <path d="M14.6,428.8 C14.5,428.7 14.4,428.6 14.3,428.5 C13.7,428 13.1,427.5 13.1,427.1 L20.1,299.7 C20.2,298.1 21.4,296.7 22.7,295.5 C23.1,295.1 23.5,294.7 23.8,294.3 L70.7,237.4 L71.2,236.8 C71.9,236 72.2,235.6 72.3,235 L8.3,199.5 L8.4,199.3 C8.4,199.3 8.4,199.2 8.5,199.2 C8.6,199.1 8.7,199.1 8.8,199.1 L19.7,205.1 L72.4,234.3 C72.4,233.9 72.3,233.4 72.1,232.8 L44.4,116.7 C44.4,116.6 44.3,116.2 44.1,115.7 C42.7,111.1 42.3,109.3 42.7,109.1 L136.1,32.8 C136.2,32.7 136.3,32.7 136.3,32.7 C136.4,32.7 136.4,32.6 136.5,32.6 L136.6,32.8 L45.3,107.4 C45,107.6 44.8,107.8 44.5,108 C43.3,108.9 43.2,109 43.6,110.8 L73.1,234.9 L110.6,255.7 L174.1,290.9 L174,291 L174,291.1 L174,291 L174,291 L174,291 C174,291 173.9,291.1 173.8,291.1 C173.7,291.2 173.6,291.2 173.6,291.2 L57.6,325.8 L74.9,487 C74.9,487.1 74.9,487.1 74.7,487.2 C74.7,487.3 74.5,487.3 74.4,487.3 L74.2,487.3 L14.6,428.8 L14.6,428.8 Z M72.9,235.4 C72.6,235.9 71.9,236.5 71.5,236.9 C71.3,237.1 71.2,237.2 71.2,237.3 L21,298.3 C20.3,299.2 20.4,301.4 20.4,303 L20.4,304.5 L13.9,423.9 C13.9,424.2 13.9,424.5 13.8,424.8 C13.7,426.5 13.6,426.9 15.2,428.4 L74.4,486.3 L57.2,325.9 L57.2,325.9 C57.2,325.8 57.5,325.7 57.6,325.7 L93.8,314.9 L173.4,291.2 C173.2,291.1 173.1,291 172.8,290.9 C172.7,290.8 172.6,290.8 172.4,290.7 L72.9,235.4 L72.9,235.4 Z" id="Shape"></path>
                    <path d="M136.2,32.9 C113.3,51.6 90.4,70.3 67.6,89 C59.3,95.7 51.1,102.5 42.8,109.2 C42.3,109.6 44.4,116.1 44.6,116.7 C46.2,123.4 47.8,130.1 49.4,136.8 C57,168.8 64.6,200.8 72.2,232.8 C72.8,235.4 72.6,235.3 70.8,237.5 C66.3,242.9 61.9,248.3 57.4,253.7 C46.2,267.3 35,280.8 23.9,294.4 C22.6,296 20.4,297.6 20.3,299.8 C20.1,304.2 19.8,308.7 19.6,313.1 C18.6,330.9 17.6,348.7 16.7,366.6 C15.8,383.5 14.8,400.4 13.9,417.3 C13.7,420.6 13.5,423.9 13.4,427.2 C13.4,427.6 14.6,428.5 14.9,428.8 C16.7,430.6 18.5,432.4 20.3,434.1 C38.4,451.9 56.6,469.6 74.7,487.4 L75.1,487.2 C72.3,460.9 69.5,434.6 66.6,408.3 C63.7,380.8 60.7,353.4 57.8,325.9 C57.8,325.6 57.1,326.1 57.6,326 C58,325.9 58.4,325.7 58.9,325.6 C60.7,325.1 62.5,324.5 64.4,324 L84.5,318 C102.9,312.5 121.3,307 139.8,301.5 C151.2,298.1 162.6,294.7 174,291.3 C174.1,291.3 174.4,291 174.4,291.1 C153.2,279.4 132.1,267.6 110.9,255.9 C80.5,239.1 50.2,222.2 19.8,205.4 L9,199.4 C8.9,199.4 8.7,199.7 8.6,199.6 C29.8,211.3 50.9,223.1 72.1,234.8 C102.5,251.6 132.8,268.5 163.2,285.3 C166.4,287.1 169.6,288.9 172.8,290.6 C173.6,291 173.7,291.3 174.4,291 C173.5,291.3 172.7,291.5 171.8,291.8 C158,295.9 144.2,300 130.4,304.2 C106.2,311.4 82.1,318.6 57.9,325.8 L57.5,326 C60.3,352.3 63.1,378.6 66,404.9 C68.9,432.4 71.9,459.8 74.8,487.3 C74.8,487.5 75.3,487.3 75,487 C74.6,486.6 74.1,486.1 73.7,485.7 C71.9,483.9 70.1,482.1 68.3,480.4 C62.2,474.4 56,468.4 49.9,462.4 C38.4,451.1 26.9,439.9 15.4,428.6 C13.6,426.9 13.9,426.6 14.1,424 C14.4,418.4 14.7,412.9 15,407.3 C16,388.7 17,370.2 18.1,351.6 C19,336 19.8,320.3 20.7,304.7 C20.8,303.2 20.3,299.6 21.3,298.4 C24.6,294.4 27.8,290.5 31.1,286.5 C42.8,272.4 54.4,258.2 66.1,244.1 C67.9,241.9 69.7,239.7 71.6,237.5 C71.8,237.2 73.6,235.5 73.5,235.1 C72.8,232.3 72.2,229.5 71.5,226.7 C63.5,193 55.5,159.2 47.5,125.5 C46.4,120.7 45.2,115.8 44.1,111 C43.6,108.8 43.9,109 45.8,107.5 C57,98.4 68.2,89.2 79.4,80.1 C98.7,64.4 117.9,48.7 137.2,32.9 C136.5,32.8 136.3,32.8 136.2,32.9 L136.2,32.9 L136.2,32.9 Z" id="Shape"></path>
                    <path d="M279.1,406.3 L57.2,326 L57.3,325.8 L57.4,325.7 C57.5,325.6 57.6,325.6 57.7,325.6 L60.1,326.5 L279.6,406 L279.5,406.2 L279.4,406.3 C279.3,406.3 279.3,406.4 279.1,406.3 L279.1,406.3 L279.1,406.3 Z" id="Shape"></path>
                    <path d="M57.3,325.9 C77,333 96.7,340.1 116.3,347.3 C152.4,360.4 188.5,373.4 224.6,386.5 C242.8,393.1 261,399.7 279.1,406.3 C279.2,406.3 279.4,406 279.5,406.1 C259.8,399 240.1,391.9 220.5,384.7 C184.4,371.6 148.3,358.6 112.2,345.5 C94,338.9 75.8,332.3 57.7,325.7 C57.6,325.6 57.4,325.9 57.3,325.9 L57.3,325.9 L57.3,325.9 Z" id="Shape"></path>
                    <path d="M334.2,179.9 L334.5,179.4 L465.2,258.4 L517.9,191.1 L555.6,27.2 L724,35.7 L724,36.4 L556.1,27.9 L518.5,191.4 L465.3,259.3 L334.2,179.9 Z" id="Shape"></path>
                    <path d="M465.3,259.2 L465.1,259.1 L334.3,179.9 L334.5,179.5 L465.2,258.5 L518,191.2 L555.7,27.3 L555.9,27.3 L723.9,35.8 L723.9,36.3 L556,27.8 L518.4,191.4 L518.4,191.4 L465.3,259.2 Z" id="Shape"></path>
                    <path d="M334.3,179.4 L628.9,124.4 L589.7,72 L723.9,35.7 L724.1,36.4 L590.8,72.4 L630.1,124.9 L334.4,180.1 L334.3,179.4 Z" id="Shape"></path>
                    <path d="M334.5,179.9 L334.4,179.5 L629.1,124.5 L589.8,72.1 L590.2,72 L723.8,35.8 L724,36.3 L590.6,72.4 L629.9,124.8 L629.6,124.9 L334.5,179.9 Z" id="Shape"></path>
                    <path d="M274.2,140.7 L430.1,21.3 L444.8,79.4 L444.1,79.6 L429.7,22.4 L274.6,141.3 L274.2,140.7 Z" id="Shape"></path>
                    <path d="M274.7,141.1 L274.4,140.7 L430,21.4 L430.1,21.8 L444.6,79.3 L444.2,79.5 L429.7,22.3 L274.7,141.1 Z" id="Shape"></path>
                    <path d="M52.3,323.7 L136,186 L136.6,186.9 L53.5,323.6 L235.6,506.3 L235.5,507.2 L235.5,507.4 L52.3,323.7 Z" id="Shape"></path>
                    <path d="M235.4,507.2 L52.5,323.7 L136,186.1 L136.5,186.9 L53.4,323.6 L235.5,506.4 L235.4,507.2 Z" id="Shape"></path>
                    <g transform="translate(3.000000, 0.000000)" id="Shape">
                        <path d="M235.4,16 C236.3,8.5 230.9,1.7 223.4,0.8 C215.8,-0.1 209,5.3 208.1,12.8 C207.2,20.3 212.6,27.1 220.1,28 C227.6,28.9 234.5,23.5 235.4,16 L235.4,16 Z"></path>
                        <path d="M502.2,192.3 C501.6,197.5 505.3,202.2 510.5,202.8 C515.7,203.4 520.5,199.7 521.1,194.5 C521.7,189.3 518,184.6 512.8,184 C507.5,183.4 502.8,187.1 502.2,192.3 L502.2,192.3 Z"></path>
                        <path d="M150.7,539.5 C151.6,531.8 146.1,524.7 138.3,523.8 C130.5,522.9 123.5,528.4 122.5,536.2 C121.6,543.9 127.1,551 134.9,551.9 C142.7,552.8 149.8,547.2 150.7,539.5 L150.7,539.5 Z"></path>
                        <path d="M246.7,209 C247.4,203.6 243.5,198.6 238,198 C232.5,197.4 227.6,201.2 226.9,206.7 C226.3,212.1 230.1,217.1 235.6,217.7 C241.1,218.3 246.1,214.4 246.7,209 L246.7,209 Z"></path>
                        <path d="M79.7,160.3 C80.3,154.9 76.5,149.9 71,149.3 C65.5,148.7 60.6,152.5 59.9,158 C59.2,163.4 63.1,168.4 68.6,169 C74.1,169.6 79.1,165.7 79.7,160.3 L79.7,160.3 Z"></path>
                        <path d="M141.5,187.4 C142,183 138.9,179 134.5,178.5 C130.1,178 126.1,181.1 125.6,185.5 C125.1,189.9 128.2,193.9 132.6,194.4 C137,194.9 141,191.8 141.5,187.4 L141.5,187.4 Z"></path>
                        <path d="M14.9,201 C15.4,197.1 12.6,193.5 8.6,193.1 C4.7,192.6 1.1,195.4 0.6,199.3 C0.1,203.2 2.9,206.8 6.9,207.2 C10.9,207.7 14.5,204.9 14.9,201 L14.9,201 Z"></path>
                        <path d="M498.4,14.6 C497.7,20.4 501.8,25.6 507.6,26.3 C513.4,27 518.7,22.9 519.4,17.1 C520.1,11.3 516,6.1 510.1,5.4 C504.4,4.7 499.1,8.8 498.4,14.6 L498.4,14.6 Z"></path>
                        <path d="M407.1,335.3 C406.4,341.1 410.5,346.3 416.4,347 C422.2,347.7 427.5,343.6 428.2,337.8 C428.9,332 424.8,326.8 419,326.1 C413.1,325.4 407.8,329.5 407.1,335.3 L407.1,335.3 Z"></path>
                        <path d="M44,324.5 C43.3,330.3 47.4,335.5 53.3,336.2 C59.1,336.9 64.4,332.8 65.1,327 C65.8,321.2 61.7,316 55.9,315.3 C49.9,314.6 44.7,318.8 44,324.5 L44,324.5 Z"></path>
                        <path d="M31.1,108.1 C30.6,112.7 33.8,116.8 38.4,117.3 C43,117.8 47.1,114.6 47.7,110 C48.2,105.4 45,101.3 40.4,100.8 C35.8,100.3 31.6,103.5 31.1,108.1 L31.1,108.1 Z"></path>
                        <path d="M454.1,130.3 C453.6,134.9 456.8,139 461.4,139.5 C466,140 470.1,136.8 470.7,132.2 C471.2,127.6 468,123.5 463.4,123 C458.8,122.5 454.6,125.8 454.1,130.3 L454.1,130.3 Z"></path>
                        <path d="M380,422.3 C379.5,426.9 382.7,431 387.3,431.5 C391.9,432 396,428.8 396.6,424.2 C397.1,419.6 393.9,415.5 389.3,415 C384.7,414.5 380.5,417.7 380,422.3 L380,422.3 Z"></path>
                        <path d="M576.1,70.9 C575.4,77 579.8,82.6 585.9,83.3 C592.1,84 597.6,79.7 598.4,73.5 C599.1,67.4 594.7,61.8 588.6,61.1 C582.4,60.4 576.8,64.8 576.1,70.9 L576.1,70.9 Z"></path>
                        <path d="M241.5,92.3 C241,96.6 244.1,100.6 248.4,101.1 C252.7,101.6 256.7,98.5 257.2,94.2 C257.7,89.9 254.6,85.9 250.3,85.4 C245.9,84.8 242,87.9 241.5,92.3 L241.5,92.3 Z"></path>
                        <path d="M575.3,152.4 C574.8,156.7 577.9,160.7 582.2,161.2 C586.5,161.7 590.5,158.6 591,154.3 C591.5,150 588.4,146 584.1,145.5 C579.8,145 575.8,148.1 575.3,152.4 L575.3,152.4 Z"></path>
                        <path d="M419,20.9 C418.5,25.2 421.6,29.2 425.9,29.7 C430.3,30.2 434.2,27.1 434.7,22.8 C435.2,18.5 432.1,14.5 427.8,14 C423.4,13.5 419.5,16.6 419,20.9 L419,20.9 Z"></path>
                        <path d="M516.1,257.7 C515.6,262 518.7,266 523,266.5 C527.3,267 531.3,263.9 531.8,259.6 C532.3,255.3 529.2,251.4 524.9,250.8 C520.6,250.3 516.6,253.4 516.1,257.7 L516.1,257.7 Z"></path>
                        <path d="M64,234.3 C63.6,237.5 65.9,240.5 69.2,240.9 C72.5,241.3 75.4,239 75.8,235.7 C76.2,232.5 73.9,229.5 70.6,229.1 C67.3,228.7 64.4,231 64,234.3 L64,234.3 Z"></path>
                        <path d="M143.9,34 C144.6,28.2 140.4,23 134.6,22.3 C128.8,21.6 123.5,25.7 122.8,31.5 C122.1,37.3 126.2,42.5 132.1,43.2 C138,43.9 143.2,39.8 143.9,34 L143.9,34 Z"></path>
                        <g transform="translate(10.000000, 294.000000)">
                            <path d="M294.9,7.7 C294.4,12 297.5,15.9 301.8,16.5 C306.1,17 310.1,13.9 310.6,9.6 C311.1,5.3 308,1.3 303.7,0.8 C299.4,0.2 295.4,3.3 294.9,7.7 L294.9,7.7 Z"></path>
                            <path d="M215,211.8 C214.5,216.1 217.6,220.1 221.9,220.6 C226.2,221.1 230.2,218 230.7,213.7 C231.2,209.4 228.1,205.5 223.8,204.9 C219.4,204.4 215.5,207.5 215,211.8 L215,211.8 Z"></path>
                            <path d="M251.9,109.8 C250.8,119.1 257.5,127.6 266.8,128.7 C276.2,129.8 284.7,123.2 285.8,113.8 C286.9,104.5 280.2,96 270.9,94.9 C261.5,93.8 253,100.5 251.9,109.8 L251.9,109.8 Z"></path>
                            <path d="M0.3,279.5 C-0.2,283.8 2.9,287.8 7.2,288.3 C11.5,288.8 15.5,285.7 16,281.4 C16.5,277.1 13.4,273.2 9.1,272.6 C4.7,272.1 0.8,275.2 0.3,279.5 L0.3,279.5 Z"></path>
                        </g>
                    </g>
                    <path d="M24.7,427.2 C25.5,420.6 20.8,414.6 14.1,413.8 C7.5,413 1.5,417.7 0.7,424.3 C-0.1,430.9 4.6,436.9 11.3,437.7 C17.9,438.5 23.9,433.8 24.7,427.2 L24.7,427.2 Z" id="Shape"></path>
                    <path d="M315.1,244.3 C315.7,239.1 312,234.4 306.8,233.8 C301.6,233.2 296.8,236.9 296.2,242.1 C295.6,247.3 299.3,252 304.5,252.6 C309.7,253.3 314.5,249.5 315.1,244.3 L315.1,244.3 Z" id="Shape"></path>
                    <path d="M478,257.1 C478.7,251.7 474.8,246.7 469.3,246.1 C463.8,245.5 458.9,249.3 458.2,254.8 C457.5,260.2 461.4,265.2 466.9,265.8 C472.4,266.4 477.3,262.6 478,257.1 L478,257.1 Z" id="Shape"></path>
                    <path d="M284.4,142.1 C285.1,136.7 281.2,131.7 275.7,131.1 C270.2,130.5 265.3,134.3 264.6,139.8 C264,145.2 267.8,150.2 273.3,150.8 C278.8,151.4 283.7,147.5 284.4,142.1 L284.4,142.1 Z" id="Shape"></path>
                    <path d="M734.5,37.4 C735.2,31.5 731,26.1 725.1,25.4 C719.2,24.7 713.9,28.9 713.2,34.8 C712.5,40.7 716.7,46.1 722.6,46.8 C728.5,47.5 733.8,43.3 734.5,37.4 L734.5,37.4 Z" id="Shape"></path>
                    <path d="M642.3,126.2 C643.1,119.1 638.1,112.7 631,111.8 C623.9,111 617.5,116 616.7,123.1 C615.9,130.2 620.9,136.6 628,137.5 C635.1,138.3 641.5,133.3 642.3,126.2 L642.3,126.2 Z" id="Shape"></path>
                    <path d="M458.6,81.1 C459.5,73.3 453.9,66.2 446.1,65.3 C438.3,64.4 431.1,69.9 430.2,77.7 C429.3,85.5 434.9,92.6 442.7,93.5 C450.6,94.5 457.7,88.9 458.6,81.1 L458.6,81.1 Z" id="Shape"></path>
                    <path d="M181.5,92.5 C182.3,85.5 177.4,79.2 170.4,78.4 C163.4,77.6 157.1,82.5 156.3,89.5 C155.5,96.5 160.4,102.8 167.4,103.6 C174.3,104.4 180.6,99.5 181.5,92.5 L181.5,92.5 Z" id="Shape"></path>
                    <path d="M342.4,180.7 C342.9,176.3 339.8,172.3 335.4,171.8 C331,171.3 327,174.4 326.5,178.8 C326,183.2 329.1,187.2 333.5,187.7 C337.9,188.2 341.9,185 342.4,180.7 L342.4,180.7 Z" id="Shape"></path>
                    <path d="M164.7,289 C164,294.8 168.2,300 174,300.7 C179.8,301.4 185.1,297.3 185.8,291.5 C186.5,285.7 182.3,280.5 176.5,279.8 C170.6,279.1 165.4,283.2 164.7,289 L164.7,289 Z" id="Shape"></path>
                    <path d="M12.2,297.6 C11.7,302.2 14.9,306.3 19.5,306.8 C24.1,307.3 28.2,304.1 28.8,299.5 C29.3,294.9 26.1,290.8 21.5,290.3 C16.9,289.8 12.7,293.1 12.2,297.6 L12.2,297.6 Z" id="Shape"></path>
                    <path d="M16.3,12.7 C15.8,17.3 19,21.4 23.6,21.9 C28.2,22.4 32.3,19.2 32.9,14.6 C33.4,10 30.2,5.9 25.6,5.4 C21,4.9 16.8,8.2 16.3,12.7 L16.3,12.7 Z" id="Shape"></path>
                    <path d="M166.3,197.8 C165.5,204.6 170.4,210.8 177.2,211.6 C184.1,212.4 190.3,207.5 191.1,200.7 C191.9,193.9 187,187.7 180.2,186.9 C173.3,186.1 167.1,191 166.3,197.8 L166.3,197.8 Z" id="Shape"></path>
                    <path d="M122.6,355.1 C122.1,359.7 125.3,363.8 129.9,364.3 C134.5,364.8 138.6,361.6 139.2,357 C139.7,352.4 136.5,348.3 131.9,347.8 C127.3,347.3 123.1,350.6 122.6,355.1 L122.6,355.1 Z" id="Shape"></path>
                    <path d="M85.1,90.9 C84.6,95.2 87.7,99.2 92,99.7 C96.3,100.2 100.3,97.1 100.8,92.8 C101.3,88.5 98.2,84.5 93.9,84 C89.5,83.5 85.6,86.6 85.1,90.9 L85.1,90.9 Z" id="Shape"></path>
                    <path d="M256.7,351.5 C256.2,355.8 259.3,359.8 263.6,360.3 C267.9,360.8 271.9,357.7 272.4,353.4 C272.9,349.1 269.8,345.1 265.5,344.6 C261.2,344 257.3,347.1 256.7,351.5 L256.7,351.5 Z" id="Shape"></path>
                    <path d="M312.2,35.3 C312.9,29.5 308.7,24.3 302.9,23.6 C297.1,22.9 291.8,27 291.1,32.8 C290.4,38.6 294.6,43.8 300.4,44.5 C306.3,45.2 311.5,41.1 312.2,35.3 L312.2,35.3 Z" id="Shape"></path>
                    <path d="M563.6,28.5 C564.1,24.2 561.1,20.3 556.8,19.8 C552.5,19.3 548.7,22.3 548.2,26.6 C547.7,30.9 550.7,34.8 555,35.3 C559.2,35.8 563.1,32.8 563.6,28.5 L563.6,28.5 Z" id="Shape"></path>
                    <path d="M89,488.9 C89.9,481.1 84.3,474 76.5,473.1 C68.7,472.2 61.5,477.7 60.6,485.5 C59.7,493.3 65.3,500.4 73.1,501.3 C80.9,502.2 88,496.7 89,488.9 L89,488.9 Z" id="Shape"></path>
                </g>
            </g>
        </g>
    </g>
</svg>